<?xml version="1.0" standalone="no"?>
<!DOCTYPE svg PUBLIC "-//W3C//DTD SVG 20010904//EN"
 "http://www.w3.org/TR/2001/REC-SVG-20010904/DTD/svg10.dtd">
<svg version="1.0" xmlns="http://www.w3.org/2000/svg"
 width="1096.000000pt" height="1096.000000pt" viewBox="0 0 1096.000000 1096.000000"
 preserveAspectRatio="xMidYMid meet">
<metadata>
Created by potrace 1.14, written by Peter Selinger 2001-2017
</metadata>
<g transform="translate(0.000000,1096.000000) scale(0.100000,-0.100000)"
fill="#000000" stroke="none">
<path d="M5834 10953 c-20 -15 -51 -119 -59 -196 -3 -23 -7 -53 -9 -67 -3 -14
-8 -45 -11 -70 -3 -25 -10 -74 -15 -110 -10 -69 -20 -149 -25 -190 -1 -14 -6
-52 -10 -85 -4 -33 -9 -85 -11 -115 -1 -30 -4 -55 -5 -55 -1 0 -5 -55 -13
-180 -3 -38 -7 -169 -11 -290 -3 -121 -7 -244 -9 -272 -1 -29 2 -53 7 -53 4 0
5 -5 1 -11 -10 -16 -11 -60 -2 -85 4 -12 4 -25 1 -28 -6 -6 -5 -94 4 -321 3
-77 6 -161 6 -187 1 -27 4 -48 7 -48 3 0 5 -28 6 -63 1 -62 9 -175 19 -254 13
-109 14 -123 9 -123 -19 0 -161 172 -269 325 -27 39 -51 72 -55 75 -3 3 -46
66 -95 140 -50 74 -92 137 -95 140 -13 12 -130 202 -130 211 0 5 -4 9 -10 9
-5 0 -10 4 -10 9 0 7 -81 151 -130 231 -5 8 -23 42 -41 75 -17 33 -36 66 -42
74 -6 7 -12 19 -13 27 -1 7 -11 26 -21 41 -34 50 -301 600 -307 633 -1 3 -9
21 -18 40 -36 78 -59 133 -123 295 -36 94 -70 179 -75 190 -5 11 -23 59 -42
108 -40 107 -72 149 -113 150 -32 1 -154 -10 -195 -18 -14 -2 -52 -7 -85 -10
-68 -7 -105 -12 -155 -19 -19 -3 -51 -8 -70 -11 -19 -3 -52 -8 -73 -11 -48 -7
-86 -13 -117 -18 -14 -2 -38 -6 -55 -9 -16 -3 -50 -9 -75 -12 -25 -4 -54 -9
-65 -12 -11 -2 -31 -6 -45 -9 -14 -2 -36 -7 -48 -10 -13 -2 -43 -7 -65 -11
-23 -3 -50 -9 -59 -14 -10 -6 -18 -8 -18 -5 0 2 -19 -1 -42 -6 -24 -5 -50 -11
-58 -13 -141 -32 -216 -49 -297 -71 -54 -14 -106 -27 -116 -29 -10 -2 -27 -7
-37 -10 -10 -3 -27 -8 -38 -10 -11 -2 -75 -20 -143 -40 -67 -20 -134 -39 -148
-42 -14 -2 -28 -7 -31 -11 -3 -4 -14 -8 -25 -10 -34 -6 -340 -111 -402 -138
-17 -8 -37 -14 -45 -14 -8 0 -18 -3 -22 -7 -4 -5 -11 -8 -14 -9 -4 0 -20 -6
-37 -13 -16 -7 -59 -24 -95 -38 -62 -24 -90 -35 -162 -67 -18 -8 -62 -27 -98
-41 -102 -42 -374 -167 -385 -176 -5 -5 -17 -9 -27 -9 -10 0 -18 -4 -18 -10 0
-5 -9 -10 -20 -10 -11 0 -20 -4 -20 -10 0 -5 -8 -10 -19 -10 -10 0 -24 -7 -31
-15 -7 -9 -15 -14 -17 -12 -2 3 -27 -8 -56 -23 l-52 -27 0 -354 c1 -306 5
-423 20 -624 7 -91 16 -185 26 -270 6 -49 13 -110 14 -135 2 -25 5 -45 6 -45
2 0 3 -9 14 -105 4 -36 9 -74 12 -85 11 -50 13 -65 17 -106 2 -24 6 -55 9 -69
4 -14 9 -43 11 -65 3 -22 8 -53 11 -70 3 -16 13 -68 21 -115 9 -47 18 -94 20
-105 2 -11 11 -54 19 -95 8 -41 17 -86 20 -100 7 -28 11 -46 24 -110 11 -55
11 -55 52 -222 18 -73 33 -140 34 -148 1 -8 5 -22 8 -30 9 -21 37 -129 43
-165 4 -16 10 -38 15 -47 5 -10 7 -18 3 -18 -3 0 -1 -6 5 -13 6 -8 8 -17 4
-20 -3 -4 0 -13 7 -22 7 -8 10 -15 7 -15 -3 0 3 -26 14 -57 11 -32 20 -60 20
-63 0 -3 9 -36 21 -75 11 -38 22 -77 23 -85 2 -8 4 -16 5 -17 2 -2 3 -6 4 -10
1 -5 15 -46 30 -93 15 -47 29 -89 30 -95 1 -5 4 -14 7 -20 3 -5 12 -32 19 -60
7 -27 17 -56 23 -62 5 -7 7 -13 3 -13 -4 0 0 -13 8 -29 9 -16 12 -31 9 -35 -4
-3 -2 -6 3 -6 5 0 10 -8 11 -17 2 -20 125 -363 153 -428 17 -37 31 -73 35 -85
1 -3 9 -23 19 -45 10 -22 27 -62 37 -89 11 -27 29 -69 40 -92 10 -24 19 -48
19 -53 0 -6 5 -11 10 -11 6 0 9 -3 8 -7 -2 -9 10 -38 65 -153 19 -41 38 -85
42 -97 3 -13 11 -23 16 -23 5 0 9 -6 9 -14 0 -7 22 -59 50 -115 27 -56 50
-106 50 -112 0 -6 10 -25 22 -42 13 -18 22 -34 21 -37 -3 -9 42 -100 49 -100
5 0 8 -9 8 -20 0 -11 5 -20 12 -20 6 0 8 -3 5 -6 -7 -8 138 -288 168 -324 7
-8 18 -30 26 -47 8 -18 17 -33 21 -33 5 0 8 -5 8 -10 0 -10 128 -232 285 -492
28 -46 52 -87 54 -93 2 -5 7 -12 10 -15 4 -3 40 -59 81 -125 41 -66 77 -122
80 -125 3 -3 17 -23 30 -45 13 -22 26 -42 29 -45 14 -12 71 -102 71 -110 0 -6
4 -10 8 -10 4 0 23 -25 41 -55 18 -30 37 -55 42 -55 5 0 9 -6 9 -13 0 -7 9
-23 20 -35 11 -12 20 -24 20 -28 0 -8 61 -86 75 -96 6 -5 6 -8 0 -8 -5 0 3
-11 18 -25 15 -14 27 -32 27 -40 0 -7 3 -15 8 -17 6 -3 202 -257 227 -296 10
-15 26 -36 62 -79 10 -12 27 -33 37 -48 11 -14 27 -35 35 -45 17 -19 27 -32
111 -140 28 -36 56 -72 63 -80 7 -8 30 -37 52 -65 22 -27 50 -59 63 -71 12
-12 22 -24 22 -26 0 -6 71 -85 172 -192 38 -39 75 -78 83 -87 8 -9 15 -21 15
-27 0 -5 3 -12 8 -14 4 -1 27 -28 52 -58 25 -30 81 -91 125 -136 68 -69 156
-166 175 -192 12 -17 63 -51 70 -47 4 3 10 -8 13 -24 4 -17 15 -32 26 -36 11
-3 102 -87 203 -187 246 -242 381 -368 415 -387 15 -9 30 -19 31 -23 2 -5 12
-8 21 -8 10 0 18 -6 18 -12 1 -29 9 -43 30 -53 20 -9 95 -74 202 -172 25 -24
70 -55 99 -69 61 -31 84 -26 147 32 21 19 42 34 47 34 5 0 6 5 3 10 -3 6 -2
10 2 10 5 0 29 18 53 40 25 23 67 60 94 83 27 23 55 48 62 55 7 6 15 12 18 12
3 0 14 8 24 18 10 9 37 33 61 52 23 19 97 88 164 152 67 65 145 137 174 160
32 26 55 54 59 71 4 18 13 27 25 27 12 0 19 7 19 20 0 14 7 20 21 20 28 0 110
84 150 155 10 16 26 29 38 30 22 2 96 76 106 108 4 9 10 17 15 17 14 0 31 75
23 98 -5 12 -28 43 -53 69 -25 26 -72 79 -105 118 -79 92 -83 97 -98 99 -25 4
-44 22 -67 64 -13 23 -27 42 -32 42 -4 0 -8 5 -8 10 0 6 -19 30 -42 54 -24 24
-68 72 -98 106 -144 162 -231 259 -255 284 -17 18 -63 72 -137 161 -7 9 -21
25 -30 36 -10 10 -18 23 -18 28 0 5 -3 11 -7 13 -13 5 -93 106 -93 117 0 5
-17 17 -39 27 -26 11 -37 22 -34 33 2 9 -33 63 -82 126 -47 61 -93 120 -103
133 -9 13 -24 32 -32 41 -8 10 -26 33 -40 51 -14 18 -30 38 -35 44 -6 6 -21
28 -35 48 -14 21 -28 38 -32 38 -5 0 -8 6 -8 14 0 8 -3 16 -8 18 -8 3 -104
133 -191 258 -91 131 -146 211 -156 228 -5 9 -12 19 -15 22 -3 3 -38 55 -78
115 -39 61 -75 115 -79 121 -9 11 -23 35 -55 93 -17 30 -78 132 -113 190 -6 9
-36 55 -68 103 -31 47 -57 90 -57 95 0 6 -9 18 -20 28 -11 10 -20 21 -20 25 0
3 -31 58 -69 122 -38 63 -84 144 -102 179 -19 35 -36 66 -39 69 -13 12 -190
372 -190 385 0 8 -4 15 -10 15 -5 0 -10 4 -10 9 0 5 -11 34 -25 65 -14 31 -25
59 -26 64 0 4 -4 12 -9 17 -4 6 -27 55 -50 110 -23 55 -49 116 -57 135 -23 54
-45 108 -47 120 -1 3 -7 15 -14 27 -7 12 -11 26 -10 30 0 4 -8 30 -20 56 -12
27 -22 53 -22 58 0 5 -4 17 -10 27 -5 9 -23 58 -40 107 -17 50 -34 97 -37 105
-3 8 -7 20 -8 25 -2 6 -16 51 -33 100 -32 94 -100 313 -126 402 -8 28 -12 54
-9 57 4 3 2 6 -4 6 -5 0 -10 6 -11 13 0 6 -3 21 -6 32 -3 11 -10 38 -16 60 -6
22 -13 48 -15 58 -3 9 -7 25 -9 35 -2 9 -13 53 -25 97 -11 44 -32 130 -46 190
-14 61 -33 139 -41 175 -14 57 -24 109 -40 188 -2 12 -6 33 -9 47 -3 14 -7 36
-10 50 -14 68 -16 82 -20 105 -3 14 -7 41 -10 60 -2 19 -7 46 -11 60 -3 14 -7
34 -8 45 -5 36 -18 119 -23 140 -3 11 -7 38 -9 60 -3 22 -7 51 -11 65 -3 14
-7 43 -9 64 -3 22 -7 51 -9 65 -5 24 -11 71 -20 146 -12 99 -16 132 -21 148
-3 9 -2 17 3 17 10 0 79 -121 75 -132 -1 -5 3 -8 9 -8 5 0 7 -4 4 -10 -3 -5
-2 -10 3 -10 5 0 12 -8 15 -17 4 -10 27 -54 52 -98 25 -44 49 -89 55 -100 5
-11 14 -27 19 -35 15 -22 106 -183 115 -200 4 -8 18 -33 31 -55 13 -22 34 -58
46 -80 12 -22 35 -59 51 -82 16 -24 26 -43 22 -43 -4 0 0 -8 8 -17 8 -10 39
-58 67 -107 29 -49 59 -95 67 -103 8 -8 12 -19 9 -24 -4 -5 -1 -9 4 -9 6 0 11
-7 11 -15 0 -8 4 -15 9 -15 5 0 14 -13 21 -30 7 -16 16 -30 21 -30 5 0 9 -7 9
-15 0 -8 5 -15 10 -15 6 0 10 -6 10 -13 0 -7 7 -22 15 -32 56 -73 85 -115 85
-122 0 -5 13 -24 30 -43 16 -19 29 -40 30 -47 0 -6 4 -13 8 -15 4 -1 32 -40
62 -85 30 -46 58 -83 62 -83 4 0 8 -5 8 -12 0 -6 11 -26 25 -44 14 -18 25 -37
25 -42 0 -6 3 -12 8 -14 4 -1 25 -28 47 -58 22 -30 44 -58 50 -62 6 -5 6 -8 0
-8 -6 0 -6 -3 0 -8 6 -4 51 -61 100 -127 48 -66 93 -124 99 -130 6 -5 23 -28
39 -51 15 -22 36 -50 47 -62 11 -12 20 -24 20 -27 0 -4 6 -12 13 -19 6 -7 23
-28 37 -46 27 -37 72 -92 80 -100 3 -3 21 -25 40 -50 47 -61 61 -78 87 -107
11 -13 36 -42 55 -65 18 -23 44 -54 58 -69 14 -15 36 -42 50 -60 43 -57 151
-184 166 -195 8 -6 14 -16 14 -23 0 -6 7 -11 15 -11 8 0 15 -5 15 -11 0 -7 12
-24 28 -39 27 -27 130 -140 213 -235 104 -119 587 -593 617 -606 18 -8 35 -24
38 -36 6 -22 40 -56 134 -133 30 -25 60 -50 66 -56 6 -5 35 -30 64 -55 29 -24
74 -63 99 -85 25 -23 73 -63 106 -90 33 -27 65 -53 70 -59 6 -6 28 -24 50 -40
21 -16 47 -36 56 -45 9 -8 25 -22 35 -30 11 -8 33 -26 50 -40 17 -14 48 -38
70 -55 21 -16 46 -38 56 -48 10 -9 23 -17 28 -17 6 0 10 -4 10 -10 0 -5 4 -10
10 -10 5 0 19 -8 31 -18 46 -38 58 -48 79 -62 49 -34 196 -140 207 -150 7 -5
16 -10 22 -10 5 0 11 -4 13 -8 2 -4 46 -37 98 -72 52 -36 97 -67 100 -71 3 -3
16 -12 30 -19 39 -21 224 -143 231 -153 3 -5 10 -8 15 -8 5 0 36 -17 69 -38
148 -93 211 -125 274 -136 26 -4 35 1 74 47 39 47 197 273 197 282 0 3 35 60
78 128 43 68 89 142 102 166 13 23 28 42 32 42 5 0 7 4 3 9 -3 5 1 15 8 23 8
7 26 36 41 63 16 28 32 55 36 60 9 12 37 62 141 250 43 77 83 145 89 152 5 7
10 17 10 24 0 6 8 23 18 37 10 15 29 47 41 72 44 86 104 195 113 208 6 6 7 12
3 12 -4 0 -3 6 2 13 16 20 46 119 45 149 -1 27 -40 108 -52 108 -3 0 -24 24
-45 53 -22 28 -42 54 -45 57 -15 13 -170 250 -170 259 0 6 -4 11 -10 11 -5 0
-10 7 -10 15 0 8 -4 15 -9 15 -5 0 -11 8 -15 18 -3 9 -19 37 -35 62 -16 25
-42 68 -56 95 -15 28 -34 58 -43 68 -8 9 -11 17 -6 17 5 0 5 4 -1 8 -14 10
-24 29 -120 221 -73 146 -99 203 -162 351 -8 19 -19 44 -24 55 -8 19 -30 74
-34 85 -1 3 -4 12 -8 20 -3 8 -15 42 -26 75 -12 33 -25 69 -30 80 -17 40 -111
341 -115 369 -1 6 -4 16 -7 21 -4 6 -10 28 -14 50 -4 22 -10 44 -13 50 -4 5
-7 19 -7 30 -1 11 -4 27 -8 35 -6 15 -24 95 -31 140 -3 14 -5 25 -6 25 -1 0
-3 11 -6 25 -2 14 -11 59 -20 100 -9 41 -17 91 -19 110 -2 19 -10 71 -18 115
-8 44 -13 83 -10 88 2 4 1 7 -4 7 -4 0 -8 12 -8 28 -1 15 -5 61 -9 102 -14
119 -14 121 -21 205 -4 44 -9 96 -11 115 -1 19 -6 155 -10 303 -6 263 -6 267
13 267 15 0 22 -9 26 -29 6 -27 103 -182 120 -189 4 -2 7 -8 7 -12 0 -5 24
-43 53 -85 28 -41 57 -83 62 -93 17 -29 49 -77 56 -82 3 -3 16 -24 29 -47 13
-24 27 -43 32 -43 4 0 8 -7 8 -15 0 -8 3 -15 8 -15 4 -1 23 -25 42 -55 19 -30
38 -55 43 -55 4 0 7 -6 7 -13 0 -7 11 -26 25 -42 13 -17 46 -59 72 -95 26 -36
50 -67 53 -70 3 -3 17 -21 30 -40 13 -19 27 -37 31 -40 4 -3 23 -27 44 -54 21
-27 47 -59 59 -71 11 -12 30 -33 41 -46 46 -55 111 -135 125 -153 117 -147
303 -346 457 -488 28 -26 48 -49 45 -52 -3 -3 -1 -6 5 -6 5 0 21 -10 35 -23
20 -19 158 -140 205 -181 35 -30 123 -89 123 -82 0 3 12 -1 27 -9 30 -16 43
-12 43 13 0 10 8 29 17 42 10 14 16 26 15 28 -2 1 8 37 21 80 40 122 59 186
62 202 2 8 4 15 5 15 1 0 3 9 5 20 7 41 37 140 45 149 5 5 6 15 3 22 -3 8 0
21 7 29 7 8 10 15 7 15 -4 0 0 18 8 40 8 22 14 42 15 45 0 3 0 6 1 8 0 1 2 9
4 17 2 8 19 78 39 155 19 77 37 151 39 165 3 14 10 43 15 65 10 36 18 80 27
140 2 11 4 20 5 20 2 0 10 36 16 75 2 19 7 46 10 60 3 14 7 35 9 47 2 12 6 36
10 55 4 18 9 48 11 66 2 18 5 41 8 50 3 9 8 40 11 68 3 28 8 61 10 75 3 13 7
40 10 59 2 19 7 53 10 75 4 22 8 60 10 85 2 25 4 45 5 45 1 0 3 14 5 30 2 28
9 96 21 210 3 28 7 66 9 85 1 19 6 67 9 105 9 99 14 174 21 300 4 61 9 112 11
114 2 2 -1 10 -7 18 -6 7 -8 13 -3 13 11 0 17 111 18 374 l1 208 -43 38 c-28
24 -94 58 -184 96 -78 32 -146 59 -152 60 -7 1 -32 10 -56 21 -25 11 -70 29
-100 41 -30 11 -98 37 -150 56 -52 20 -98 36 -102 36 -4 0 -17 4 -30 9 -13 5
-26 8 -29 7 -3 0 -12 4 -20 10 -8 6 -34 16 -59 23 -25 7 -54 17 -65 21 -30 12
-59 23 -65 25 -29 7 -160 48 -175 55 -17 7 -80 27 -260 81 -16 5 -57 17 -90
28 -81 26 -118 35 -132 32 -7 -1 -13 3 -13 9 0 5 -3 9 -7 8 -15 -4 -88 14
-100 24 -7 6 -13 8 -13 5 0 -5 -33 2 -110 24 -31 9 -53 14 -100 24 -8 2 -15 4
-15 5 0 1 -7 3 -15 5 -8 2 -62 15 -120 28 -58 14 -147 35 -197 46 -51 12 -133
30 -182 41 -50 11 -94 20 -98 19 -4 -1 -15 0 -23 4 -13 5 -78 18 -105 21 -9 1
-124 22 -172 31 -10 2 -18 4 -18 5 0 1 -11 3 -25 5 -14 1 -45 6 -70 10 -25 5
-53 8 -62 9 -10 0 -18 3 -18 6 0 3 -15 6 -33 6 -17 1 -48 4 -67 8 -34 6 -69
11 -160 22 -56 7 -85 12 -85 14 0 1 -16 3 -35 5 -53 5 -135 14 -177 21 -21 3
-51 5 -66 5 -16 -1 -26 2 -24 6 3 5 -16 8 -41 8 -42 0 -160 9 -267 21 -87 9
-441 15 -451 7z"/>
</g>
</svg>
